<svg width="34" height="35" viewBox="0 0 34 35" fill="none" xmlns="http://www.w3.org/2000/svg">
<path d="M19.4508 30.1601C19.2018 30.5894 18.8443 30.9458 18.4142 31.1936C17.984 31.4413 17.4964 31.5717 17 31.5717C16.5036 31.5717 16.016 31.4413 15.5858 31.1936C15.1557 30.9458 14.7982 30.5894 14.5492 30.1601M25.5 11.7434C25.5 9.48907 24.6045 7.32706 23.0104 5.733C21.4163 4.13894 19.2543 3.24341 17 3.24341C14.7457 3.24341 12.5837 4.13894 10.9896 5.733C9.39553 7.32706 8.5 9.48907 8.5 11.7434C8.5 21.6601 4.25 24.4934 4.25 24.4934H29.75C29.75 24.4934 25.5 21.6601 25.5 11.7434Z" stroke="#3A09FF" stroke-width="4" stroke-linecap="round" stroke-linejoin="round"/>
</svg>
