<svg width="34" height="27" viewBox="0 0 34 27" fill="none" xmlns="http://www.w3.org/2000/svg">
<path d="M31.3711 0.519736C32.3895 0.463157 33.2947 1.25526 33.2382 2.2171V21.3408C33.2382 22.2461 32.5026 23.0382 31.5408 23.0947C28.7684 23.2079 23.1105 23.7737 19.2066 25.7539C18.5842 26.0368 17.8487 25.6408 17.8487 24.9618V4.3671C17.8487 4.08421 18.0184 3.80132 18.3013 3.63158C22.0921 1.31184 28.2592 0.689473 31.3711 0.519736ZM15.6421 3.63158C15.925 3.80132 16.0947 4.08421 16.0947 4.3671V24.9618C16.0947 25.6408 15.3592 26.0368 14.7368 25.7539C10.8329 23.7737 5.175 23.2079 2.40263 23.0947C1.44079 23.0382 0.705263 22.2461 0.705263 21.3408V2.2171C0.705263 1.25526 1.55395 0.463157 2.57237 0.519736C5.68421 0.689473 11.8513 1.31184 15.6421 3.63158Z" fill="#3B82F6"/>
</svg>
