<svg width="26" height="34" viewBox="0 0 26 34" fill="none" xmlns="http://www.w3.org/2000/svg">
<path d="M7.0625 23.6875C7.875 24.5625 9.0625 25 10.25 25C11.0625 25 11.8125 24.8125 12.5 24.4375L9.1875 32.4375C8.9375 33.0625 8.0625 33.25 7.5625 32.6875L5.3125 30.3125L2 30.4375C1.3125 30.5 0.75 29.75 1.0625 29.0625L3.875 22.125C4.375 22.5 4.875 22.8125 5.5 22.9375C6.75 23.3125 6.5 23.125 7.0625 23.6875ZM24.875 29.0625C25.1875 29.75 24.625 30.5 23.9375 30.4375L20.625 30.3125L18.375 32.6875C17.875 33.25 17 33.0625 16.75 32.4375L13.4375 24.4375C14.125 24.8125 14.875 25 15.6875 25C16.875 25 18.0625 24.5625 18.875 23.6875C19.4375 23.125 19.125 23.3125 20.5 22.9375C21.0625 22.8125 21.5625 22.5 22.0625 22.125L24.875 29.0625ZM17.4375 22.25C16.5625 23.125 15.3125 23.25 14.3125 22.625C13.9375 22.375 13.4375 22.25 12.9375 22.25C12.5 22.25 12 22.375 11.625 22.625C10.625 23.25 9.375 23.125 8.5625 22.25C7.625 21.3125 7.5 21.375 6.125 21C5.25 20.8125 4.5625 20.125 4.3125 19.1875C3.875 17.4375 4 17.625 2.6875 16.375C2.0625 15.6875 1.8125 14.75 2.0625 13.875C2.5 12.125 2.5 12.375 2.0625 10.5625C1.8125 9.6875 2.0625 8.75 2.6875 8.125C4 6.8125 3.875 7 4.3125 5.25C4.5625 4.375 5.25 3.6875 6.125 3.4375C7.875 2.9375 7.625 3.0625 8.9375 1.75C9.5625 1.125 10.5 0.875 11.375 1.125C13.0625 1.5625 12.875 1.5625 14.5625 1.125C15.4375 0.875 16.375 1.125 17 1.75C18.3125 3.0625 18.0625 2.9375 19.8125 3.4375C20.6875 3.6875 21.375 4.375 21.625 5.25C22.0625 7 21.9375 6.8125 23.25 8.125C23.875 8.75 24.125 9.6875 23.875 10.5625C23.4375 12.375 23.4375 12.125 23.875 13.875C24.125 14.75 23.875 15.6875 23.25 16.375C21.9375 17.625 22.0625 17.4375 21.625 19.1875C21.375 20.125 20.6875 20.8125 19.8125 21C18.5 21.375 18.375 21.3125 17.4375 22.25ZM7.0625 12C7.0625 15.3125 9.6875 18 13 18C16.25 18 18.875 15.3125 18.875 12C18.875 8.6875 16.25 6 13 6C9.6875 6 7.0625 8.6875 7.0625 12Z" fill="#3B82F6"/>
</svg>
