<svg width="49" height="59" viewBox="0 0 49 59" fill="none" xmlns="http://www.w3.org/2000/svg">
<path d="M35.8656 1.94995H2.00586V56.9691H47.0982V12.725L35.8656 1.94995Z" fill="white"/>
<path d="M9.88818 18.5629H39.0347" stroke="#BF4EF7" stroke-width="3.65363" stroke-miterlimit="10" stroke-linecap="round"/>
<path d="M9.88818 25.535H39.0347" stroke="#BF4EF7" stroke-width="3.65363" stroke-miterlimit="10" stroke-linecap="round"/>
<path d="M9.88818 32.5023H39.0347" stroke="#BF4EF7" stroke-width="3.65363" stroke-miterlimit="10" stroke-linecap="round"/>
<path d="M9.88818 39.4745H39.0347" stroke="#BF4EF7" stroke-width="3.65363" stroke-miterlimit="10" stroke-linecap="round"/>
<path d="M9.88818 46.4465H22.3503" stroke="#BF4EF7" stroke-width="3.65363" stroke-miterlimit="10" stroke-linecap="round"/>
<path d="M46.1595 10.2421L38.22 2.27875C37.2858 1.39682 36.0496 0.905746 34.7649 0.90625H2.12039C1.38172 0.90625 0.78125 1.50672 0.78125 2.24539V56.7546C0.78125 57.4933 1.38172 58.0938 2.12039 58.0938H46.8839C47.6226 58.0938 48.223 57.4933 48.223 56.7546V13.9069C48.2183 12.5201 47.1698 11.1952 46.1595 10.2421ZM46.312 56.1875H2.6875V2.8125H33.502C34.5123 2.8125 35.3368 3.63219 35.3368 4.64727V13.1682H43.6004C45.0968 13.1682 46.312 13.9927 46.312 15.8798V56.1875Z" fill="white"/>
</svg>
