<svg width="53" height="43" viewBox="0 0 53 43" fill="none" xmlns="http://www.w3.org/2000/svg">
<path d="M49.7811 0.961972C51.4309 0.870314 52.8975 2.15352 52.8058 3.71171V34.6921C52.8058 36.1586 51.6143 37.4418 50.0561 37.5335C45.5648 37.7168 36.3991 38.6334 30.0747 41.8414C29.0664 42.2997 27.8749 41.6581 27.8749 40.5582V7.19471C27.8749 6.73642 28.1498 6.27813 28.6081 6.00316C34.7492 2.24518 44.7399 1.23695 49.7811 0.961972ZM24.3002 6.00316C24.7585 6.27813 25.0335 6.73642 25.0335 7.19471V40.5582C25.0335 41.6581 23.8419 42.2997 22.8337 41.8414C16.5093 38.6334 7.3435 37.7168 2.85226 37.5335C1.29408 37.4418 0.102526 36.1586 0.102526 34.6921V3.71171C0.102526 2.15352 1.47739 0.870314 3.12724 0.961972C8.16842 1.23695 18.1591 2.24518 24.3002 6.00316Z" fill="white"/>
</svg>
