<svg width="43" height="57" viewBox="0 0 43 57" fill="none" xmlns="http://www.w3.org/2000/svg">
<path d="M11.2875 39.8625C12.685 41.3675 14.7275 42.12 16.77 42.12C18.1675 42.12 19.4575 41.7975 20.64 41.1525L14.9425 54.9125C14.5125 55.9875 13.0075 56.31 12.1475 55.3425L8.2775 51.2575L2.58 51.4725C1.3975 51.58 0.430001 50.29 0.967501 49.1075L5.805 37.175C6.665 37.82 7.525 38.3575 8.6 38.5725C10.75 39.2175 10.32 38.895 11.2875 39.8625ZM41.925 49.1075C42.4625 50.29 41.495 51.58 40.3125 51.4725L34.615 51.2575L30.745 55.3425C29.885 56.31 28.38 55.9875 27.95 54.9125L22.2525 41.1525C23.435 41.7975 24.725 42.12 26.1225 42.12C28.165 42.12 30.2075 41.3675 31.605 39.8625C32.5725 38.895 32.035 39.2175 34.4 38.5725C35.3675 38.3575 36.2275 37.82 37.0875 37.175L41.925 49.1075ZM29.1325 37.39C27.6275 38.895 25.4775 39.11 23.7575 38.035C23.1125 37.605 22.2525 37.39 21.3925 37.39C20.64 37.39 19.78 37.605 19.135 38.035C17.415 39.11 15.265 38.895 13.8675 37.39C12.255 35.7775 12.04 35.885 9.675 35.24C8.17 34.9175 6.9875 33.735 6.5575 32.1225C5.805 29.1125 6.02 29.435 3.7625 27.285C2.6875 26.1025 2.2575 24.49 2.6875 22.985C3.44 19.975 3.44 20.405 2.6875 17.2875C2.2575 15.7825 2.6875 14.17 3.7625 13.095C6.02 10.8375 5.805 11.16 6.5575 8.15C6.9875 6.645 8.17 5.4625 9.675 5.0325C12.685 4.1725 12.255 4.3875 14.5125 2.13C15.5875 1.055 17.2 0.624999 18.705 1.055C21.6075 1.8075 21.285 1.8075 24.1875 1.055C25.6925 0.624999 27.305 1.055 28.38 2.13C30.6375 4.3875 30.2075 4.1725 33.2175 5.0325C34.7225 5.4625 35.905 6.645 36.335 8.15C37.0875 11.16 36.8725 10.8375 39.13 13.095C40.205 14.17 40.635 15.7825 40.205 17.2875C39.4525 20.405 39.4525 19.975 40.205 22.985C40.635 24.49 40.205 26.1025 39.13 27.285C36.8725 29.435 37.0875 29.1125 36.335 32.1225C35.905 33.735 34.7225 34.9175 33.2175 35.24C30.96 35.885 30.745 35.7775 29.1325 37.39ZM11.2875 19.76C11.2875 25.4575 15.8025 30.08 21.5 30.08C27.09 30.08 31.605 25.4575 31.605 19.76C31.605 14.0625 27.09 9.44 21.5 9.44C15.8025 9.44 11.2875 14.0625 11.2875 19.76Z" fill="white"/>
</svg>
