<svg width="60" height="59" viewBox="0 0 60 59" fill="none" xmlns="http://www.w3.org/2000/svg">
<path d="M59.0185 29.5341C59.0185 45.5644 45.9134 58.5526 30 58.5526C13.9696 58.5526 0.9815 45.5644 0.9815 29.5341C0.9815 13.6207 13.9696 0.515565 30 0.515565C45.9134 0.515565 59.0185 13.6207 59.0185 29.5341ZM26.6067 44.9794L48.1366 23.4495C48.8386 22.7475 48.8386 21.4604 48.1366 20.7583L45.4453 18.1841C44.7433 17.365 43.5732 17.365 42.8711 18.1841L25.3196 35.7356L17.0119 27.5449C16.3098 26.7258 15.1397 26.7258 14.4377 27.5449L11.7464 30.1191C11.0444 30.8212 11.0444 32.1083 11.7464 32.8103L23.9155 44.9794C24.6175 45.6815 25.9046 45.6815 26.6067 44.9794Z" fill="white"/>
</svg>
