<svg width="35" height="35" viewBox="0 0 35 35" fill="none" xmlns="http://www.w3.org/2000/svg">
<path d="M14.2188 14.5469L16.8984 16.0781C17.2266 16.2969 17.4453 16.625 17.4453 17.0078V20.125C17.4453 20.5078 17.2266 20.8906 16.8984 21.0547L14.2188 22.6406C13.8906 22.8594 13.4531 22.8594 13.125 22.6406L10.4453 21.1094C10.1172 20.8906 9.89844 20.5625 9.89844 20.1797V17.0625C9.89844 16.6797 10.1172 16.2969 10.4453 16.1328L13.125 14.6016C13.4531 14.3281 13.8906 14.3281 14.2188 14.5469Z" fill="#2F4BFF"/>
<path d="M21.9844 9.13281C21.875 9.07813 21.8203 9.07813 21.7109 9.13281L19.4141 10.4453C19.3047 10.5 19.3047 10.6094 19.3047 10.6641V13.2891C19.3047 13.3984 19.3594 13.4531 19.4141 13.5078L21.7109 14.8203C21.8203 14.875 21.875 14.875 21.9844 14.8203L24.2812 13.5078C24.3906 13.4531 24.3906 13.3437 24.3906 13.2891V10.6641C24.3906 10.5547 24.3359 10.5 24.2812 10.4453L21.9844 9.13281ZM22.3125 8.69531L24.6094 10.0078C24.8828 10.1719 25.0469 10.4453 25.0469 10.7188V13.3437C25.0469 13.6172 24.8828 13.8906 24.6094 14.0547L22.3125 15.3672C22.0391 15.5312 21.7656 15.5312 21.4922 15.3672L19.1953 14.0547C18.9219 13.8906 18.7578 13.6172 18.7578 13.3437V10.7188C18.7578 10.4453 18.9219 10.1719 19.1953 10.0078L21.4922 8.69531C21.7109 8.53125 22.0391 8.53125 22.3125 8.69531ZM23.5156 23.625L21.2188 24.9375V27.5625L23.5156 28.875L25.8125 27.5625V24.9375L23.5156 23.625ZM26.3594 23.9531C26.6875 24.1719 26.9062 24.5 26.9062 24.8828V27.5078C26.9062 27.8906 26.6875 28.2734 26.3594 28.4375L24.0625 29.8594C23.7344 30.0781 23.2969 30.0781 22.9688 29.8594L20.6719 28.5469C20.3438 28.3281 20.125 28 20.125 27.6172V24.9922C20.125 24.6094 20.3438 24.2266 20.6719 24.0625L22.9688 22.75C23.2969 22.5312 23.7344 22.5312 24.0625 22.75L26.3594 23.9531ZM6.01562 5.79688V7.32812L7.38281 8.09375L8.75 7.32812V5.79688L7.38281 5.03125L6.01562 5.79688ZM9.40625 4.92187C9.67969 5.08594 9.84375 5.35938 9.84375 5.63281V7.49219C9.84375 7.76562 9.67969 8.03906 9.40625 8.20312L7.76562 9.13281C7.49219 9.29688 7.21875 9.29688 6.94531 9.13281L5.30469 8.20312C5.08594 8.03906 4.92188 7.76562 4.92188 7.49219V5.63281C4.92188 5.35938 5.08594 5.08594 5.35938 4.92187L7 3.99219C7.27344 3.82812 7.54688 3.82812 7.82031 3.99219L9.40625 4.92187ZM6.5625 26.5781L4.92188 27.5078V29.3672L6.5625 30.2969L8.20312 29.3672V27.5078L6.5625 26.5781ZM6.83594 26.0859L8.47656 27.0156C8.64062 27.125 8.75 27.2891 8.75 27.5078V29.3672C8.75 29.5859 8.64062 29.75 8.47656 29.8594L6.83594 30.7891C6.67188 30.8984 6.45312 30.8984 6.28906 30.7891L4.64844 29.8594C4.48437 29.75 4.375 29.5859 4.375 29.3672V27.5078C4.375 27.2891 4.48437 27.125 4.64844 27.0156L6.28906 26.0859C6.45312 25.9766 6.67188 25.9766 6.83594 26.0859Z" fill="#050D42"/>
<path d="M13.7812 26.5234L11.6484 28.6563C11.5937 28.7109 11.5391 28.7109 11.4297 28.7109H8.42187C8.25781 28.7109 8.14844 28.6016 8.14844 28.4375C8.14844 28.2734 8.25781 28.1641 8.42187 28.1641H11.3203L13.3438 26.1406V23.7891C13.3438 23.625 13.4531 23.5156 13.6172 23.5156C13.7812 23.5156 13.8906 23.625 13.8906 23.7891V25.9766H19.6875C19.8516 25.9766 19.9609 26.0859 19.9609 26.25C19.9609 26.4141 19.8516 26.5234 19.6875 26.5234H13.7812ZM13.3984 11.5938L9.67969 8.36719C9.57031 8.25782 9.57031 8.09375 9.625 7.98438C9.73438 7.875 9.89844 7.875 10.0078 7.92969L13.7812 11.1563H18.0469C18.2109 11.1563 18.3203 11.2656 18.3203 11.4297C18.3203 11.5938 18.2109 11.7031 18.0469 11.7031H13.9453V13.6719C13.9453 13.8359 13.8359 13.9453 13.6719 13.9453C13.5078 13.9453 13.3984 13.8359 13.3984 13.6719V11.5938ZM27.3438 24.8828C27.1797 24.8828 27.0703 24.7734 27.0703 24.6094C27.0703 24.4453 27.1797 24.3359 27.3438 24.3359H30.3516C30.5156 24.3359 30.625 24.4453 30.625 24.6094C30.625 24.7734 30.5156 24.8828 30.3516 24.8828H27.3438ZM25.6484 10.0078C25.5391 10.1172 25.375 10.1172 25.2656 10.0625C25.1562 9.95313 25.1562 9.78907 25.2109 9.67969L28.4922 5.85156C28.6016 5.74219 28.7656 5.74219 28.875 5.79688C28.9844 5.90625 28.9844 6.07032 28.9297 6.17969L25.6484 10.0078ZM5.46875 17.2266C5.30469 17.2266 5.19531 17.1172 5.19531 16.9531C5.19531 16.7891 5.30469 16.6797 5.46875 16.6797H9.29688C9.46094 16.6797 9.57031 16.7891 9.57031 16.9531C9.57031 17.1172 9.46094 17.2266 9.29688 17.2266H5.46875ZM23.7891 22.1484C23.7891 22.3125 23.6797 22.4219 23.5156 22.4219C23.3516 22.4219 23.2422 22.3125 23.2422 22.1484V18.5938C23.2422 18.4297 23.3516 18.3203 23.5156 18.3203C23.6797 18.3203 23.7891 18.4297 23.7891 18.5938V22.1484Z" fill="#050D42"/>
</svg>
