<svg width="41" height="40" viewBox="0 0 41 40" fill="none" xmlns="http://www.w3.org/2000/svg">
<path d="M17.0359 0H23.2859C24.3016 0 25.1609 0.859375 25.1609 1.875V15H31.9578C33.3641 15 34.0672 16.7188 33.0516 17.7344L21.1766 29.6094C20.6297 30.1562 19.6141 30.1562 19.0672 29.6094L7.19219 17.7344C6.17656 16.7188 6.87969 15 8.28594 15H15.1609V1.875C15.1609 0.859375 15.9422 0 17.0359 0ZM40.1609 29.375V38.125C40.1609 39.2188 39.3016 40 38.2859 40H2.03594C0.942188 40 0.160938 39.2188 0.160938 38.125V29.375C0.160938 28.3594 0.942188 27.5 2.03594 27.5H13.4422L17.2703 31.3281C18.8328 32.9688 21.4109 32.9688 22.9734 31.3281L26.8016 27.5H38.2859C39.3016 27.5 40.1609 28.3594 40.1609 29.375ZM30.4734 36.25C30.4734 35.3906 29.7703 34.6875 28.9109 34.6875C28.0516 34.6875 27.3484 35.3906 27.3484 36.25C27.3484 37.1094 28.0516 37.8125 28.9109 37.8125C29.7703 37.8125 30.4734 37.1094 30.4734 36.25ZM35.4734 36.25C35.4734 35.3906 34.7703 34.6875 33.9109 34.6875C33.0516 34.6875 32.3484 35.3906 32.3484 36.25C32.3484 37.1094 33.0516 37.8125 33.9109 37.8125C34.7703 37.8125 35.4734 37.1094 35.4734 36.25Z" fill="#1E3C72"/>
</svg>
