<svg width="14" height="19" viewBox="0 0 14 19" fill="none" xmlns="http://www.w3.org/2000/svg">
<path d="M8.18445 5.35371C8.18445 5.8322 8.52622 6.17397 9.00471 6.17397H13.6529V17.3842C13.6529 17.8627 13.2769 18.2045 12.8326 18.2045H1.34893C0.870442 18.2045 0.528666 17.8627 0.528666 17.3842V1.52582C0.528666 1.08151 0.870442 0.70556 1.34893 0.70556H8.18445V5.35371ZM10.2351 9.01071C10.406 8.73729 10.2009 8.36134 9.89333 8.39552H8.69711C8.52622 8.39552 8.38951 8.46387 8.32116 8.60058C7.29583 10.5487 7.09076 10.9247 7.09076 10.9247C6.50974 9.72844 6.71481 10.2753 5.82619 8.60058C5.75784 8.46387 5.62113 8.39552 5.45024 8.39552H4.2882C3.94643 8.39552 3.74136 8.73729 3.91225 9.01071L5.99708 12.2234L3.91225 15.4019C3.74136 15.6753 3.94643 16.0513 4.2882 16.0513H5.45024C5.62113 16.0513 5.75784 15.9488 5.82619 15.8121C6.74899 14.1374 6.85152 13.9665 7.09076 13.4538C7.09076 13.4538 7.63761 14.5817 8.32116 15.8121C8.38951 15.9488 8.52622 16.0171 8.69711 16.0171H9.89333C10.2009 16.0171 10.406 15.6753 10.2351 15.4019L8.18445 12.1892L10.2351 9.01071ZM13.6529 4.87523V5.08029H9.27813V0.70556H9.4832C9.68826 0.70556 9.89333 0.808093 10.0642 0.944803L13.4136 4.29421C13.5503 4.46509 13.6529 4.67016 13.6529 4.87523Z" fill="white"/>
</svg>
