<svg width="14" height="14" viewBox="0 0 14 14" fill="none" xmlns="http://www.w3.org/2000/svg">
<path d="M13.3102 11.7001C13.544 11.9599 13.544 12.3495 13.2843 12.5833L12.5569 13.3107C12.3231 13.5704 11.9335 13.5704 11.6737 13.3107L9.10202 10.739C8.97214 10.6091 8.92019 10.4533 8.92019 10.2974V9.8558C7.98503 10.5831 6.84206 10.9988 5.59519 10.9988C2.60788 10.9988 0.192062 8.58295 0.192062 5.59564C0.192062 2.63431 2.60788 0.192517 5.59519 0.192517C8.55652 0.192517 10.9983 2.63431 10.9983 5.59564C10.9983 6.86849 10.5567 8.01146 9.85534 8.92064H10.271C10.4268 8.92064 10.5827 8.99857 10.7126 9.10248L13.3102 11.7001ZM5.59519 8.92064C7.41355 8.92064 8.92019 7.43998 8.92019 5.59564C8.92019 3.77728 7.41355 2.27064 5.59519 2.27064C3.75085 2.27064 2.27019 3.77728 2.27019 5.59564C2.27019 7.43998 3.75085 8.92064 5.59519 8.92064Z" fill="white"/>
</svg>
