<svg width="41" height="30" viewBox="0 0 41 30" fill="none" xmlns="http://www.w3.org/2000/svg">
<path d="M38.9109 25C39.5359 25 40.1609 25.625 40.1609 26.25V28.75C40.1609 29.4531 39.5359 30 38.9109 30H2.66094C1.25469 30 0.160938 28.9062 0.160938 27.5V1.25C0.160938 0.625 0.707813 0 1.41094 0H3.91094C4.53594 0 5.16094 0.625 5.16094 1.25V25H38.9109ZM36.4109 2.5C37.0359 2.5 37.6609 3.125 37.5828 3.75V13.0469C37.5828 14.6875 35.6297 15.5469 34.4578 14.375L31.8797 11.7969L24.3797 19.2969C23.4422 20.3125 21.8016 20.3125 20.8641 19.2969L15.1609 13.5938L11.4891 17.1875C11.0203 17.6562 10.2391 17.6562 9.77031 17.1875L7.97344 15.3906C7.50469 14.9219 7.50469 14.1406 7.97344 13.6719L13.3641 8.28125C14.3016 7.26562 15.9422 7.26562 16.8797 8.28125L22.6609 13.9844L28.3641 8.28125L25.7859 5.70312C24.6141 4.53125 25.4734 2.5 27.1141 2.5H36.4109Z" fill="#1E3C72"/>
</svg>
