<svg width="46" height="30" viewBox="0 0 46 30" fill="none" xmlns="http://www.w3.org/2000/svg">
<path d="M45.3563 13.9062C45.5125 14.2188 45.5906 14.6094 45.5906 15.0781C45.5906 15.4688 45.5125 15.8594 45.3563 16.1719C41.1375 24.4531 32.7 30 23.1688 30C13.5594 30 5.12188 24.4531 0.903126 16.1719C0.746876 15.8594 0.668751 15.4688 0.668751 15C0.668751 14.6094 0.746876 14.2188 0.903126 13.9062C5.12188 5.625 13.5594 0 23.1688 0C32.7 0 41.1375 5.625 45.3563 13.9062ZM23.1688 26.25V26.3281C29.3406 26.3281 34.4188 21.25 34.4188 15.0781V15C34.4188 8.82812 29.3406 3.75 23.1688 3.75C16.9188 3.75 11.9188 8.82812 11.9188 15C11.9188 21.25 16.9188 26.25 23.1688 26.25ZM23.1688 7.5V7.57812C27.3094 7.57812 30.6688 10.8594 30.6688 15C30.6688 19.1406 27.3094 22.5 23.1688 22.5C19.0281 22.5 15.6688 19.1406 15.6688 15C15.6688 14.375 15.7469 13.6719 15.9031 13.0469C16.5281 13.5156 17.3094 13.75 18.1688 13.75C20.2 13.75 21.8406 12.1094 21.8406 10.0781C21.8406 9.21875 21.6063 8.4375 21.1375 7.8125C21.7625 7.65625 22.4656 7.57812 23.1688 7.5Z" fill="#1E3C72"/>
</svg>
